<?xml version="1.0" standalone="no"?>
<!DOCTYPE svg PUBLIC "-//W3C//DTD SVG 20010904//EN"
 "http://www.w3.org/TR/2001/REC-SVG-20010904/DTD/svg10.dtd">
<svg version="1.0" xmlns="http://www.w3.org/2000/svg"
 width="1920.000000pt" height="1920.000000pt" viewBox="0 0 1920.000000 1920.000000"
 preserveAspectRatio="xMidYMid meet">
<metadata>
Created by potrace 1.14, written by Peter Selinger 2001-2017
</metadata>
<g transform="translate(0.000000,1920.000000) scale(0.100000,-0.100000)"
fill="#000000" stroke="none">
<path d="M1905 11798 c-59 -161 -112 -300 -116 -308 -5 -8 -15 -35 -23 -60
-31 -94 -310 -867 -381 -1055 -19 -49 -70 -193 -115 -320 -45 -126 -87 -243
-94 -260 -8 -16 -24 -59 -36 -95 -22 -63 -49 -138 -280 -775 -60 -165 -149
-408 -198 -540 -106 -285 -165 -445 -182 -500 -7 -22 -18 -53 -25 -70 -22 -52
-166 -443 -170 -462 -3 -19 -59 -173 -74 -208 -5 -11 -18 -45 -29 -75 -11 -30
-39 -106 -62 -168 -23 -62 -39 -116 -36 -119 3 -3 318 -6 701 -7 l695 -1 26
70 c14 39 37 97 49 130 13 33 55 148 95 255 39 107 80 216 91 242 10 26 19 51
19 57 0 6 45 132 101 281 55 148 102 278 103 287 4 16 78 217 156 423 16 41
66 179 112 306 l82 231 893 0 c492 0 896 -3 898 -8 7 -10 -59 -192 -304 -849
-18 -47 -48 -130 -67 -185 -82 -231 -252 -697 -363 -998 -45 -120 -81 -224
-81 -230 0 -15 1386 -15 1399 -1 4 5 26 59 49 119 165 443 224 602 227 617 2
9 43 122 90 250 48 128 103 280 122 338 19 58 41 119 48 135 8 17 20 50 29 75
25 77 67 185 76 195 5 6 8 14 8 18 0 4 7 27 15 50 55 149 117 332 132 392 10
39 23 75 29 80 13 12 17 185 5 185 -5 0 -9 10 -9 23 0 44 -42 182 -73 242 -18
33 -61 90 -97 127 l-65 66 80 38 c153 72 294 180 432 330 48 52 88 103 88 112
0 9 9 22 20 27 18 10 128 208 138 250 3 11 28 83 56 160 132 364 230 646 237
680 3 20 13 39 21 42 9 4 13 20 12 52 -1 25 3 65 9 89 8 33 7 42 -4 42 -7 0
-16 16 -19 38 -25 149 -84 271 -176 363 -72 71 -140 110 -253 143 -71 21 -77
21 -1987 24 l-1915 2 -109 -292z m2763 -1220 c-38 -106 -71 -195 -74 -197 -3
-3 -1741 -5 -1791 -2 -7 1 -2 26 17 74 16 39 48 127 72 195 l43 122 901 0 901
0 -69 -192z"/>
<path d="M7380 12074 c-91 -18 -96 -20 -180 -47 -152 -49 -312 -151 -470 -300
-85 -80 -173 -184 -165 -196 3 -5 -3 -12 -14 -16 -24 -7 -110 -175 -160 -313
-22 -59 -67 -183 -101 -277 -34 -93 -86 -239 -116 -325 -30 -85 -60 -166 -66
-180 -9 -22 -205 -560 -212 -585 -2 -5 -8 -23 -15 -40 -7 -16 -28 -73 -46
-125 -19 -52 -53 -147 -75 -210 -23 -63 -43 -119 -44 -125 -2 -5 -8 -23 -15
-40 -6 -16 -16 -41 -21 -55 -5 -14 -15 -38 -21 -55 -6 -16 -34 -93 -60 -170
-27 -77 -52 -147 -56 -155 -3 -8 -18 -49 -33 -90 -22 -61 -137 -372 -255 -685
-40 -109 -56 -154 -56 -160 0 -5 -22 -67 -129 -355 -34 -91 -74 -203 -90 -250
-16 -47 -67 -186 -114 -310 -47 -123 -83 -226 -81 -229 6 -6 1394 -5 1400 1 3
2 62 157 131 344 69 186 130 347 135 356 5 10 9 24 9 32 0 8 18 61 39 118 115
303 171 455 171 467 0 7 6 27 14 44 31 72 173 456 286 777 l48 135 1428 1
1428 1 32 89 c18 49 65 179 105 289 39 110 84 234 99 275 44 121 128 353 185
516 l53 151 -1419 0 c-780 0 -1421 2 -1423 4 -2 2 25 85 61 184 35 99 66 186
68 193 4 9 299 12 1432 12 l1428 0 37 103 c20 56 59 165 86 242 44 123 106
290 237 640 21 55 53 141 70 190 18 50 38 102 44 118 l11 27 -1768 -1 c-1438
-1 -1779 -4 -1832 -15z"/>
<path d="M11061 12068 c-71 -194 -145 -390 -156 -418 -44 -114 -72 -188 -110
-295 -23 -66 -79 -223 -124 -348 -44 -125 -81 -230 -81 -232 0 -3 159 -5 354
-5 l353 0 -79 -217 c-43 -120 -104 -288 -134 -373 -30 -85 -61 -171 -69 -190
-19 -48 -80 -213 -125 -340 -20 -58 -52 -145 -69 -195 -18 -49 -42 -117 -53
-150 -12 -33 -24 -64 -28 -70 -5 -5 -15 -32 -23 -60 -9 -27 -25 -75 -37 -105
-11 -30 -29 -80 -40 -110 -23 -69 -70 -195 -244 -670 -76 -206 -152 -413 -168
-460 -16 -47 -33 -94 -38 -105 -4 -11 -14 -36 -20 -55 -7 -19 -19 -48 -25 -65
-7 -16 -32 -84 -55 -150 -23 -66 -89 -245 -145 -397 l-102 -278 26 -1 c193 -6
1374 0 1380 7 8 9 275 721 272 726 -1 2 10 35 24 73 14 39 53 144 86 235 34
91 65 174 70 185 5 11 20 56 34 100 14 44 28 87 32 95 3 8 7 17 8 20 1 3 5 14
10 25 34 87 129 342 204 550 49 138 122 338 161 445 39 107 82 229 96 270 14
41 32 89 39 105 8 17 55 147 106 290 50 143 97 274 104 290 17 38 135 365 140
386 2 8 11 33 20 55 9 21 18 44 19 49 1 6 16 49 34 95 17 47 61 168 98 270 36
102 123 340 194 530 71 190 142 382 159 428 l30 82 -1060 0 -1059 0 -9 -22z"/>
<path d="M13270 12063 c-6 -16 -17 -44 -25 -63 -7 -19 -45 -120 -84 -225 -38
-104 -90 -244 -114 -310 -25 -66 -66 -178 -92 -250 -26 -71 -64 -177 -85 -235
-47 -126 -113 -312 -141 -395 -12 -33 -27 -73 -34 -90 -7 -16 -16 -41 -20 -55
-4 -14 -13 -38 -20 -55 -7 -16 -27 -70 -45 -120 -17 -49 -37 -106 -45 -125 -7
-19 -29 -80 -49 -135 -19 -55 -60 -170 -92 -255 -31 -85 -78 -216 -104 -290
-27 -74 -60 -166 -75 -205 -15 -38 -51 -137 -80 -220 -97 -271 -132 -367 -240
-655 -58 -157 -119 -321 -135 -365 -68 -191 -250 -692 -345 -950 -56 -154
-101 -282 -99 -284 2 -2 317 -4 700 -4 584 0 697 2 705 14 5 8 16 37 25 64 9
28 22 64 29 80 23 52 215 575 215 583 0 7 82 230 147 402 14 36 36 97 48 135
29 86 92 263 104 290 14 30 85 220 111 298 13 37 27 67 32 67 4 0 8 -19 9 -42
0 -24 2 -54 5 -68 2 -14 8 -52 14 -85 5 -33 12 -85 15 -115 4 -30 8 -71 11
-90 3 -19 7 -54 9 -77 3 -24 7 -64 10 -90 3 -27 8 -70 11 -98 3 -27 11 -88 19
-135 8 -47 17 -114 20 -150 3 -36 8 -76 10 -90 4 -25 9 -66 20 -175 3 -33 10
-85 15 -115 15 -88 18 -112 25 -175 3 -33 10 -94 15 -135 5 -41 11 -97 14
-125 9 -92 18 -160 22 -164 5 -5 1063 -5 1068 0 99 106 456 538 456 551 0 11
4 17 9 14 9 -6 36 23 132 134 30 36 121 142 202 236 107 125 145 177 141 189
-5 13 -2 16 13 13 15 -2 48 31 137 137 65 77 137 163 161 190 151 178 175 209
175 226 0 12 7 19 19 19 10 0 35 20 55 45 20 24 43 50 50 57 7 8 18 24 25 37
7 12 15 20 18 18 2 -3 -28 -92 -68 -199 -117 -314 -129 -346 -185 -506 -29
-84 -56 -157 -59 -162 -3 -6 -8 -18 -10 -27 -2 -10 -33 -94 -68 -188 -35 -93
-70 -188 -76 -210 -20 -63 -191 -528 -202 -548 -6 -11 -8 -21 -5 -24 4 -5
1256 -8 1377 -4 23 1 30 9 50 64 13 34 24 64 25 67 0 3 4 12 7 20 9 22 202
549 287 785 40 110 79 214 86 230 7 17 29 77 48 135 19 58 62 177 96 265 33
88 78 210 100 270 60 172 150 418 159 440 5 11 17 43 26 70 10 28 24 64 31 82
8 17 14 35 14 39 0 7 46 138 70 199 17 43 91 247 135 370 103 286 308 854 335
925 15 41 39 107 53 145 14 39 42 117 63 175 21 58 39 110 40 115 1 6 21 60
44 120 58 154 90 237 153 410 31 83 74 199 96 259 23 60 41 113 41 117 0 5
-308 9 -684 9 l-683 0 -64 -77 c-35 -43 -69 -84 -76 -91 -7 -7 -29 -34 -50
-60 -21 -26 -40 -49 -43 -52 -3 -3 -30 -34 -59 -70 -30 -36 -60 -70 -65 -75
-41 -39 -97 -118 -92 -130 3 -10 -1 -15 -13 -15 -10 0 -40 -26 -67 -57 -27
-32 -51 -60 -54 -63 -5 -4 -64 -74 -235 -279 -11 -13 -43 -51 -72 -84 -28 -33
-49 -65 -47 -72 3 -7 -5 -15 -18 -19 -13 -4 -42 -30 -66 -59 -23 -28 -54 -65
-68 -82 -14 -16 -43 -50 -63 -75 -20 -25 -39 -47 -42 -50 -35 -29 -229 -276
-225 -286 3 -9 -2 -14 -13 -14 -11 0 -48 -35 -92 -87 -41 -49 -78 -93 -84 -99
-89 -98 -299 -360 -297 -370 2 -8 -4 -14 -12 -14 -8 0 -21 -9 -28 -19 -8 -11
-39 -48 -70 -83 -232 -263 -378 -443 -373 -459 4 -13 1 -16 -12 -13 -12 3 -30
-12 -56 -45 -21 -27 -46 -57 -55 -68 -10 -10 -39 -45 -67 -78 -77 -92 -94
-110 -101 -103 -3 4 -7 47 -9 97 -2 49 -8 116 -14 148 -5 32 -13 78 -16 103
-3 25 -8 59 -10 75 -3 17 -7 53 -11 80 -3 28 -8 53 -10 56 -2 3 -6 46 -9 95
-3 49 -7 100 -10 114 -2 14 -7 50 -10 80 -3 30 -8 66 -10 80 -3 14 -7 45 -10
70 -3 25 -10 79 -15 120 -6 41 -12 98 -15 125 -6 56 -31 258 -40 315 -2 14 -6
45 -9 70 -11 98 -17 146 -21 170 -2 14 -7 52 -10 85 -3 33 -8 71 -10 85 -2 14
-7 54 -10 90 -4 36 -8 76 -10 90 -2 14 -7 50 -10 80 -6 61 -9 83 -30 250 -8
63 -16 125 -19 137 -3 12 -8 53 -11 90 -4 37 -8 78 -10 89 -4 29 -15 121 -19
164 -7 72 -18 156 -22 173 -5 16 -45 17 -665 17 l-659 0 -10 -27z"/>
</g>
</svg>
